<svg width="1920" height="911" viewBox="0 0 1920 911" fill="none" xmlns="http://www.w3.org/2000/svg">
<path d="M-17.9814 705.708C-11.6098 566.419 78.0468 464.666 149.954 382.811L154.96 376.931C163.152 368.339 182.722 344.823 180.902 316.784C179.991 299.599 171.344 284.223 155.416 270.656C145.858 262.515 137.211 254.827 128.564 248.044C91.245 216.387 62.118 191.062 16.607 159.857C-0.232076 148.552 -16.616 137.698 -32.5449 127.296V129.105C-16.616 139.055 -0.687184 149.908 15.6968 161.214C61.2078 192.419 90.7899 217.744 127.654 249.401C135.846 256.636 144.948 264.324 154.505 272.012C169.979 285.127 178.626 300.503 179.536 317.236C180.902 344.823 162.242 367.887 153.595 376.479L148.589 382.358C76.6815 464.213 -12.9752 565.967 -19.8018 706.16C-20.712 721.084 -26.1733 730.129 -33 733.295V735.104C-25.2631 731.486 -18.8916 722.441 -17.9814 705.708Z" fill="#C4C4C4" fill-opacity="0.4"/>
<path d="M13.8768 707.065C19.7932 578.629 105.354 481.398 174.076 403.613L179.082 397.734C193.645 381.454 205.023 366.982 213.67 354.772C224.138 339.395 244.162 311.357 197.286 266.133C146.769 217.743 92.1557 172.972 34.8119 133.627C11.6012 117.347 -11.1543 102.875 -32.5444 90.2124V92.0213C-11.1543 105.136 10.691 119.156 33.9016 134.984C91.2455 174.329 145.859 219.1 196.376 267.49C242.342 311.809 223.227 339.395 212.76 354.319C204.113 366.53 192.735 381.001 178.172 397.282L173.165 403.161C103.989 480.946 18.4279 578.177 12.5115 707.065C9.7808 766.76 -1.14184 801.582 -21.1667 816.506C-25.2627 819.672 -28.9036 821.029 -32.5444 821.481V822.838C-28.9036 822.385 -24.8076 821.029 -20.2565 817.411C0.223488 802.487 11.1461 767.212 13.8768 707.065Z" fill="#C4C4C4" fill-opacity="0.4"/>
<path d="M46.1896 708.874C51.6509 591.744 133.116 499.488 198.196 424.869L203.203 418.989C281.026 330.803 277.841 299.599 241.432 263.872C201.382 224.527 138.577 165.736 53.0162 106.945C23.8892 87.0467 -4.78272 68.5049 -32.5444 52.2244V54.9378C-5.23783 71.2184 22.979 89.3079 51.6509 108.754C136.756 167.545 199.562 226.336 239.611 265.228C275.11 300.051 277.841 329.899 201.382 417.18L196.376 423.06C130.84 497.679 49.3754 590.388 43.914 708.422C38.4527 819.22 -3.41739 851.781 -32.5444 860.826V863.087C-2.50717 854.495 40.7283 821.481 46.1896 708.874Z" fill="#C4C4C4" fill-opacity="0.4"/>
<path d="M-32.5449 3.38325C120.827 89.7606 286.487 226.789 316.524 295.077C334.729 336.23 290.583 385.072 235.06 447.028C171.799 517.577 93.5206 605.311 88.5144 710.231C82.598 838.666 18.4274 891.126 -33 906.954V910.12C19.3377 894.291 85.3286 840.927 91.245 710.231C96.2513 606.216 174.075 518.934 236.88 448.837C293.314 385.976 337.46 336.23 318.8 293.72C289.218 225.432 122.193 86.5949 -32.5449 0.217529V3.38325Z" fill="#C4C4C4" fill-opacity="0.4"/>
<g opacity="0.4">
<path d="M1797.35 109.893C1792.7 109.893 1788.06 109.893 1783.77 109.893C1779.48 109.893 1775.19 109.893 1770.9 109.893C1746.6 109.893 1727.31 111.313 1705.87 117.705C1694.79 121.256 1684.07 126.228 1674.06 131.554C1657.27 140.076 1641.18 148.244 1621.89 148.244C1618.67 148.244 1615.45 147.888 1612.24 147.533C1598.3 145.403 1587.58 137.236 1577.22 129.423C1565.78 120.546 1555.06 112.024 1539.7 112.024C1538.27 112.024 1536.84 112.024 1535.41 112.379C1526.12 113.444 1511.11 121.611 1496.46 129.779C1487.17 135.105 1478.23 140.076 1472.16 142.207C1463.22 145.403 1456.08 147.178 1451.07 148.244C1436.06 151.795 1434.28 153.215 1426.77 180.557C1424.63 188.014 1423.2 195.116 1421.77 202.218C1416.41 227.785 1412.48 247.671 1384.96 267.201C1366.38 279.985 1343.15 286.376 1313.49 286.376C1284.19 286.376 1253.46 280.34 1226.3 275.013C1212 272.173 1198.78 269.687 1188.78 268.622C1183.06 267.911 1174.12 267.556 1164.83 267.556C1138.75 267.556 1108.01 277.144 1105.87 290.638C1104.8 297.029 1109.8 306.972 1140.18 316.56L1143.39 317.625C1258.1 354.2 1337.79 401.783 1419.27 482.035C1441.78 504.051 1458.93 514.349 1473.23 514.349C1476.44 514.349 1480.02 513.639 1482.88 512.573C1498.24 506.892 1509.32 487.717 1522.19 465.701C1528.98 454.337 1536.48 441.199 1545.41 428.77C1588.65 368.404 1650.48 324.017 1719.8 304.486C1740.17 298.805 1760.18 295.609 1779.12 295.609C1840.94 295.609 1884.54 325.792 1925.64 356.686V354.555C1884.54 323.662 1840.94 294.189 1779.12 294.189C1760.18 294.189 1739.81 297.029 1719.44 303.066C1649.76 322.951 1587.58 367.339 1543.98 428.06C1535.05 440.489 1527.55 453.627 1520.76 464.99C1507.89 487.006 1497.17 505.827 1482.52 511.153C1479.66 512.218 1476.44 512.928 1473.23 512.928C1459.29 512.928 1442.5 502.631 1420.7 480.97C1339.22 400.363 1259.17 352.78 1144.11 315.849L1140.89 314.784C1118.38 307.682 1106.58 299.16 1108.01 290.993C1109.8 279.63 1136.96 269.332 1165.19 269.332C1174.12 269.332 1183.06 269.687 1188.78 270.397C1198.78 271.462 1212 273.948 1226.3 276.789C1253.46 282.115 1284.55 288.507 1313.85 288.507C1343.87 288.507 1367.81 282.115 1386.39 268.977C1414.27 249.446 1418.55 228.851 1423.91 202.929C1425.34 196.182 1426.77 189.08 1428.92 181.623C1436.06 154.28 1437.49 153.925 1451.79 150.374C1456.79 149.309 1463.58 147.533 1472.87 144.337C1479.3 141.852 1488.24 136.88 1497.53 131.909C1511.11 124.097 1526.83 115.575 1535.77 114.509C1537.19 114.509 1538.62 114.154 1539.7 114.154C1554.35 114.154 1565.07 122.321 1576.15 131.199C1586.51 139.366 1597.23 147.888 1611.88 149.664C1615.1 150.019 1618.31 150.374 1621.53 150.374C1641.18 150.374 1657.98 141.852 1674.42 133.685C1684.42 128.713 1694.79 123.387 1705.87 119.836C1726.95 113.444 1746.25 112.024 1770.55 112.024C1774.83 112.024 1779.12 112.024 1783.41 112.024C1788.06 112.024 1792.34 112.024 1797.35 112.024C1819.15 112.024 1838.8 114.509 1857.03 119.836C1880.25 126.583 1903.12 135.46 1925.64 146.468V144.337C1903.12 133.685 1880.25 124.807 1857.38 118.06C1839.16 112.734 1819.5 109.893 1797.35 109.893Z" fill="#C4C4C4"/>
<path d="M1797.35 145.758C1767.33 145.758 1735.17 151.085 1701.58 156.766C1663.34 163.158 1624.03 169.905 1581.86 169.905C1579 169.905 1575.79 169.905 1572.93 169.905C1558.28 169.55 1546.13 167.064 1535.05 164.933C1525.76 163.158 1517.54 161.382 1509.68 161.382C1491.1 161.382 1477.52 170.97 1462.51 194.762C1455.36 206.125 1450 219.973 1445 233.112C1436.06 256.549 1426.77 280.695 1406.4 295.254C1399.26 300.226 1385.68 304.132 1371.38 308.038C1346.37 315.14 1318.14 323.307 1314.21 339.997C1309.56 360.947 1352.8 389.71 1376.03 405.335C1380.32 408.175 1384.25 410.661 1386.75 412.436C1414.26 432.322 1436.78 445.816 1458.22 445.816C1461.08 445.816 1463.94 445.461 1466.8 445.105C1483.95 441.91 1499.67 429.836 1515.75 407.11C1563.64 339.997 1632.61 290.993 1709.8 268.977C1733.38 262.23 1756.97 258.679 1779.12 258.679C1840.94 258.679 1886.33 283.536 1925.64 310.879V309.458C1886.33 282.116 1840.94 257.259 1779.12 257.259C1756.61 257.259 1733.38 260.81 1709.44 267.557C1631.89 289.573 1562.92 338.931 1515.04 406.045C1498.96 428.771 1483.59 440.489 1466.8 443.685C1463.94 444.04 1461.08 444.395 1458.22 444.395C1437.14 444.395 1414.62 431.257 1387.46 411.371C1384.96 409.596 1381.39 407.11 1376.74 404.269C1353.51 389 1310.63 360.592 1315.28 340.352C1318.85 324.372 1347.08 316.205 1371.74 309.103C1386.03 305.197 1399.61 301.291 1406.76 295.964C1427.49 281.405 1436.78 256.904 1445.71 233.467C1450.71 220.329 1456.08 206.48 1463.22 195.117C1477.87 171.68 1491.45 162.093 1509.32 162.093C1517.18 162.093 1525.04 163.513 1534.34 165.644C1545.41 167.774 1557.56 170.26 1572.21 170.615C1575.07 170.615 1578.29 170.615 1581.15 170.615C1623.32 170.615 1662.63 163.868 1700.86 157.476C1734.81 151.795 1766.61 146.468 1796.63 146.468C1815.21 146.468 1831.65 148.599 1846.66 152.86C1872.75 160.317 1898.48 171.325 1925.28 184.819V183.754C1898.84 170.615 1873.11 159.607 1847.02 152.15C1832.73 147.889 1816.29 145.758 1797.35 145.758Z" fill="#C4C4C4"/>
<path d="M1797.35 170.615C1769.47 170.615 1738.38 175.941 1705.51 181.268C1666.2 188.015 1625.82 194.761 1581.86 194.761C1578.65 194.761 1575.43 194.761 1572.21 194.761C1569.71 194.761 1566.85 194.761 1564.35 194.406C1557.56 194.051 1551.49 194.051 1545.41 194.051C1507.53 194.051 1483.95 201.863 1468.23 242.344C1458.58 267.911 1447.14 297.029 1420.7 315.85C1413.19 321.176 1405.69 325.792 1398.9 329.698C1383.53 338.931 1371.38 346.388 1370.67 356.331C1370.31 365.563 1379.6 376.926 1401.4 392.551C1422.13 407.82 1439.28 414.922 1453.57 414.922C1455 414.922 1456.08 414.922 1457.5 414.922C1478.23 413.146 1492.53 395.747 1510.04 374.086C1518.25 364.143 1527.19 353.135 1537.91 342.482C1584.36 296.319 1641.18 262.585 1703.01 245.185C1729.09 238.083 1754.82 234.532 1779.48 234.532C1840.23 234.532 1887.04 256.548 1925.99 281.76V280.34C1887.04 255.128 1840.23 233.467 1779.48 233.467C1754.82 233.467 1729.09 237.373 1703.01 244.475C1641.18 261.875 1584.01 295.609 1537.55 342.127C1526.83 352.78 1517.54 364.143 1509.68 373.731C1492.17 395.391 1478.23 412.081 1457.86 414.212C1456.79 414.212 1455.36 414.212 1453.93 414.212C1439.64 414.212 1422.84 406.755 1402.47 391.841C1381.03 376.216 1371.74 365.563 1372.1 356.331C1372.45 346.743 1384.6 339.641 1399.61 330.409C1406.4 326.503 1413.91 321.886 1421.41 316.56C1448.21 297.74 1459.65 268.267 1469.3 242.7C1484.66 202.574 1507.89 195.116 1545.41 195.116C1551.49 195.116 1557.92 195.116 1564.35 195.472C1566.85 195.472 1569.36 195.472 1572.21 195.827C1575.43 195.827 1578.65 195.827 1581.86 195.827C1626.18 195.827 1666.56 189.08 1705.86 182.333C1738.74 176.651 1769.47 171.68 1797.35 171.68C1813.43 171.68 1827.72 173.456 1840.59 177.006C1868.46 184.819 1896.69 197.602 1925.99 212.871V211.806C1896.69 196.892 1868.46 184.108 1840.94 176.296C1828.08 172.39 1813.79 170.615 1797.35 170.615Z" fill="#C4C4C4"/>
<path d="M1797.35 195.116C1771.62 195.116 1741.6 200.088 1709.8 205.414C1669.77 212.161 1627.96 219.263 1581.86 219.263C1578.65 219.263 1575.07 219.263 1571.86 219.263L1564 218.908C1557.56 218.908 1551.49 218.553 1545.77 218.553C1495.74 218.553 1493.24 245.895 1490.74 275.013C1489.31 290.993 1487.88 307.327 1478.95 321.176C1475.73 326.147 1467.51 332.539 1458.58 339.286C1439.64 353.49 1417.84 369.469 1428.2 384.738C1432.49 391.13 1437.85 394.681 1444.28 394.681C1447.5 394.681 1451.43 393.616 1455 391.84C1471.8 383.318 1490.02 357.396 1504.32 336.8C1512.54 325.082 1519.68 315.139 1523.61 312.654C1527.55 310.168 1532.19 309.813 1536.12 309.813C1537.55 309.813 1539.34 309.813 1540.77 309.813C1542.2 309.813 1543.98 309.813 1545.41 309.813C1551.13 309.813 1557.56 309.103 1563.28 304.131C1570.07 298.095 1570.79 289.927 1571.86 282.47C1572.57 275.724 1573.29 268.977 1577.93 263.65C1591.87 246.961 1640.83 235.598 1672.99 227.785C1682.64 225.655 1690.86 223.524 1696.93 221.749C1725.16 213.582 1753.04 209.675 1779.84 209.675C1839.51 209.675 1887.4 229.206 1926.35 252.287V250.157C1887.4 227.075 1839.51 207.545 1779.84 207.545C1752.68 207.545 1724.8 211.806 1696.22 219.618C1690.14 221.394 1681.92 223.169 1672.27 225.655C1637.61 233.822 1590.44 244.83 1576.15 261.875C1571.14 267.911 1570.43 275.013 1569.71 281.76C1569 289.572 1568.28 296.674 1561.85 302.356C1556.85 306.972 1550.77 307.682 1545.41 307.682C1543.98 307.682 1542.2 307.682 1540.77 307.682C1539.34 307.682 1537.55 307.682 1536.12 307.682C1531.83 307.682 1527.19 308.037 1522.54 310.523C1518.25 313.009 1511.46 322.952 1502.89 335.025C1489.31 354.555 1470.73 380.832 1453.93 389.355C1443.93 394.681 1436.06 392.551 1429.63 382.963C1420.34 369.114 1441.07 353.845 1459.65 339.996C1469.3 332.894 1477.16 326.858 1480.73 321.531C1489.67 307.327 1491.1 290.638 1492.88 274.658C1495.38 245.185 1497.89 219.973 1546.13 219.973C1551.85 219.973 1557.92 219.973 1564.35 220.328L1572.21 220.683C1575.43 220.683 1579 220.683 1582.22 220.683C1628.68 220.683 1670.13 213.582 1710.51 206.835C1742.31 201.508 1771.98 196.537 1797.7 196.537C1811.28 196.537 1823.43 197.957 1833.8 201.153C1862.74 209.675 1893.83 224.59 1925.99 241.634V239.504C1893.83 222.814 1863.46 207.9 1834.15 199.733C1823.43 196.892 1811.28 195.116 1797.35 195.116Z" fill="#C4C4C4"/>
<path d="M1364.95 237.373C1352.8 245.895 1336.36 250.156 1314.21 250.156C1288.48 250.156 1259.53 244.475 1233.8 239.503C1218.79 236.663 1204.5 233.822 1193.06 232.402C1187.35 231.691 1171.98 230.271 1153.4 230.271C1118.73 230.271 1074.07 234.887 1059.06 257.258C1052.62 266.846 1052.27 279.274 1058.34 293.478C1061.2 300.225 1068.35 303.776 1075.49 307.327C1081.21 310.168 1086.93 313.009 1090.15 317.27C1094.08 322.241 1096.22 329.698 1098.37 336.445C1101.22 345.678 1104.08 355.265 1110.87 360.947C1119.09 368.049 1128.38 371.245 1139.82 371.245C1147.68 371.245 1155.9 369.824 1163.76 368.049C1171.62 366.628 1179.48 364.853 1186.99 364.853C1194.49 364.853 1200.93 366.273 1206.64 369.469C1220.94 376.571 1226.65 386.514 1232.73 396.101C1240.23 408.53 1247.38 420.248 1270.97 425.575C1319.92 436.938 1333.5 449.011 1366.02 477.774C1370.31 481.325 1374.6 485.586 1379.6 489.847C1391.39 500.145 1399.97 511.863 1408.19 522.871C1415.69 532.814 1423.2 543.467 1433.2 552.7C1445.35 564.418 1456.79 569.389 1467.87 574.716C1482.52 581.462 1496.81 587.854 1509.32 609.515L1511.46 613.066C1527.55 640.409 1543.63 665.976 1553.63 665.976C1555.06 665.976 1556.49 665.265 1557.56 664.2C1561.14 660.294 1562.21 649.996 1560.42 632.596C1559.35 622.299 1552.2 613.421 1545.06 604.544C1537.19 594.956 1530.05 586.079 1530.4 576.136C1530.76 564.418 1538.27 558.381 1545.77 552.344C1551.49 547.728 1557.21 543.112 1560.42 536.01C1568.64 518.61 1570.43 502.986 1572.57 487.717C1575.07 466.766 1577.58 446.88 1596.51 424.509C1630.46 384.383 1677.99 353.845 1730.16 338.931C1747.68 333.959 1763.76 331.474 1779.48 331.474C1833.08 331.474 1871.32 360.237 1912.06 391.13C1916.7 394.681 1921.35 398.232 1925.99 401.428V397.877C1921.71 394.681 1917.78 391.485 1913.49 388.644C1872.39 357.751 1833.8 328.633 1779.48 328.633C1763.4 328.633 1746.96 331.119 1729.45 336.09C1676.56 351.004 1628.68 381.898 1594.37 422.379C1575.07 445.46 1572.57 465.701 1569.71 487.006C1567.93 501.921 1565.78 517.19 1557.92 534.234C1554.7 540.981 1549.34 545.598 1543.98 549.859C1536.12 556.25 1528.26 562.642 1527.55 575.426C1527.19 586.434 1535.05 596.021 1542.55 605.609C1549.34 614.131 1556.49 623.009 1557.56 632.241C1559.35 652.837 1557.21 659.584 1555.42 662.07C1554.7 662.78 1553.99 663.135 1553.28 663.135C1543.27 663.135 1522.54 626.915 1513.25 611.646L1511.11 608.095C1497.89 585.724 1483.59 579.332 1468.58 572.585C1457.5 567.614 1446.43 562.642 1434.63 551.279C1424.99 542.047 1417.12 531.749 1409.98 521.806C1401.4 510.443 1392.82 498.725 1381.03 488.427C1376.03 484.166 1371.74 480.26 1367.45 476.354C1334.58 447.236 1321 435.162 1271.32 423.799C1248.81 418.473 1242.02 407.465 1234.87 395.391C1228.8 385.449 1222.72 375.506 1208.07 368.049C1202 364.853 1195.21 363.433 1187.35 363.433C1179.48 363.433 1171.27 364.853 1163.4 366.628C1155.54 368.049 1147.68 369.824 1140.18 369.824C1129.45 369.824 1120.88 366.628 1112.66 360.237C1106.58 354.91 1103.73 346.033 1100.87 336.8C1098.72 329.698 1096.22 322.241 1092.29 316.915C1088.72 311.943 1082.64 309.103 1076.92 306.262C1070.13 302.711 1063.34 299.515 1060.84 293.478C1055.13 279.985 1055.48 268.621 1061.56 259.389C1075.85 238.083 1119.81 233.467 1154.11 233.467C1172.69 233.467 1188.06 234.887 1193.42 235.597C1204.86 236.663 1219.15 239.503 1234.16 242.699C1259.89 247.671 1288.83 253.707 1314.92 253.707C1337.43 253.707 1354.59 249.446 1367.09 240.569C1398.54 218.553 1389.25 185.529 1380.67 153.57C1371.38 119.481 1361.73 83.9708 1400.33 60.8894C1404.97 58.0486 1411.05 56.6283 1418.55 56.6283C1441.42 56.6283 1473.94 69.0567 1505.39 81.13C1532.55 91.7829 1558.64 101.726 1575.43 102.081C1577.93 102.081 1580.43 102.081 1582.58 102.081C1618.67 102.081 1655.12 96.0441 1690.5 90.0074C1725.88 83.9708 1762.33 77.9341 1798.06 77.9341C1823.08 77.9341 1845.95 80.7749 1867.39 87.1666C1887.4 92.8482 1907.05 100.305 1926.35 108.828V105.987C1907.05 97.4645 1887.76 90.3625 1868.1 84.681C1846.3 78.6443 1823.43 75.4484 1798.06 75.4484C1761.97 75.4484 1725.52 81.4851 1690.14 87.5217C1655.12 93.5584 1618.67 99.5951 1582.58 99.5951C1580.08 99.5951 1577.93 99.5951 1575.43 99.5951C1558.99 99.24 1533.62 89.2972 1506.46 78.9994C1475.02 66.9261 1442.14 54.1426 1418.55 54.1426C1410.33 54.1426 1403.9 55.563 1398.9 58.7588C1358.88 82.9055 1368.52 119.125 1378.17 154.28C1386.39 185.529 1394.61 216.422 1364.95 237.373Z" fill="#C4C4C4"/>
</g>
</svg>
