<svg width="1316" height="1108" viewBox="0 0 1316 1108" fill="none" xmlns="http://www.w3.org/2000/svg">
<g opacity="0.4">
<path d="M202.18 492.281C200.478 495.005 198.776 497.728 197.414 499.771C180.052 523.943 159.965 545.731 136.815 569.222C133.751 572.286 130.687 575.69 127.283 578.754C108.218 597.819 88.8126 617.565 76.8971 641.055C72.4714 650.247 71.1096 657.056 72.8118 661.482C73.8331 663.524 75.1949 664.886 77.2376 665.227C78.2589 665.567 78.9398 665.567 79.9611 665.567C84.0464 665.567 89.834 663.524 95.962 659.78C108.558 652.29 120.474 642.757 132.049 633.565C141.581 626.076 151.454 618.245 161.327 611.777C202.18 584.882 229.075 566.838 241.672 516.453C244.395 505.899 245.757 482.068 237.587 471.855C234.863 468.45 231.118 466.748 226.692 466.748C217.16 467.429 208.649 481.728 202.18 492.281ZM228.395 468.11C232.139 468.11 235.203 469.812 237.587 472.876C245.417 483.089 244.055 506.24 241.331 516.453C228.735 566.498 202.18 584.201 161.327 611.096C151.114 617.905 141.241 625.395 132.049 632.885C120.474 642.076 108.558 651.268 95.962 659.099C88.4722 663.865 81.6633 665.567 77.9185 664.546C76.2162 663.865 74.8545 662.843 74.1736 661.141C72.4714 657.056 73.8331 650.247 78.2589 641.396C89.834 618.245 109.58 598.5 128.304 579.435C131.368 576.03 134.773 572.966 137.837 569.902C160.646 546.412 181.073 524.623 198.436 500.452C199.797 498.409 201.499 495.686 203.202 492.962C209.33 482.749 217.841 468.791 227.714 468.45C228.054 468.11 228.054 468.11 228.395 468.11Z" fill="#C4C4C4"/>
<path d="M222.947 435.428C207.968 439.173 195.031 459.94 184.477 476.281C180.732 482.069 177.328 487.516 174.264 491.601C157.242 513.389 138.177 533.135 119.793 552.2C115.027 557.307 108.899 562.754 102.43 568.541C83.3654 586.244 59.8747 608.033 52.7254 628.119C46.5974 645.141 50.3423 661.142 53.7468 676.462C56.4703 689.058 59.5343 702.336 57.1512 716.294C55.7894 724.805 50.6828 733.316 45.2357 742.167C38.7672 752.721 31.9584 763.615 31.6179 775.531C31.6179 779.616 31.9584 783.361 33.3201 787.447C37.7459 800.043 42.5121 805.83 47.9592 805.83C53.4063 805.83 59.5343 800.043 68.3858 786.085C76.8969 772.807 80.3014 757.147 83.3654 742.167C86.7698 727.188 89.8338 711.528 98.6853 697.91C115.027 672.036 143.964 653.312 169.157 636.29C171.2 634.928 173.583 633.566 175.626 632.204C217.841 604.288 251.204 582.159 265.843 522.581C269.928 506.921 268.907 466.749 252.566 446.322C245.076 436.109 234.863 432.704 222.947 435.428ZM251.545 447.343C265.843 465.727 268.907 504.538 264.481 522.241C249.842 581.138 216.819 602.926 174.945 630.842C172.902 632.204 170.859 633.566 168.476 634.928C142.943 651.609 114.005 670.674 97.3235 696.889C88.472 710.506 85.0676 726.507 82.0036 741.827C78.9396 756.807 75.5352 772.127 67.0241 785.404C61.2365 794.936 54.0872 804.469 47.9592 804.469C43.193 804.469 39.1077 798.681 34.6819 787.106C33.3201 783.361 32.6393 779.957 32.9797 775.871C33.3201 764.637 40.129 753.743 46.257 743.189C51.7041 734.337 57.1512 725.826 58.513 716.975C60.8961 703.016 57.8321 689.739 55.1085 676.802C51.7041 660.802 48.2997 645.822 54.0872 629.14C61.2365 609.395 84.7271 587.606 103.452 570.243C109.92 564.456 116.048 558.668 120.814 553.562C139.198 534.497 158.263 514.751 175.285 492.963C178.349 488.878 181.754 483.43 185.498 477.643C195.712 461.302 208.649 440.875 222.947 437.471C225.671 436.79 228.054 436.449 230.437 436.449C238.948 436.109 245.757 439.854 251.545 447.343Z" fill="#C4C4C4"/>
<path d="M238.608 361.551C230.437 349.976 223.288 348.274 216.139 346.912C211.032 345.891 205.585 344.529 199.457 340.103L199.116 339.422C181.754 320.017 123.538 256.694 103.792 256.694C101.409 256.694 99.7068 257.375 98.345 259.077C95.6215 262.482 95.9619 269.291 98.6855 280.185C100.388 286.653 117.069 295.505 134.432 304.697C149.071 312.527 164.051 320.698 169.157 326.485C173.583 331.932 179.711 339.422 179.371 342.146C179.371 342.827 178.349 343.167 176.988 343.848C173.924 345.21 169.498 347.593 171.881 358.487C173.583 365.977 178.009 373.126 182.775 380.275C186.86 387.084 190.946 393.212 192.307 399.34C196.733 416.022 169.157 446.662 151.114 467.089C144.986 473.897 139.879 479.685 136.815 484.111C123.538 501.814 107.197 517.815 91.1957 533.475C60.2154 564.115 28.2137 595.776 16.979 639.353C-0.724051 704.718 -4.12849 762.253 6.08482 810.596C11.5319 836.47 30.2563 872.216 48.6403 872.216C59.8749 872.216 68.386 858.599 73.1522 831.704C92.2171 728.209 144.305 693.824 194.35 660.46C238.948 630.842 281.163 602.926 299.207 530.751C306.016 503.516 295.462 461.301 281.844 438.151C275.716 427.938 268.226 421.81 260.737 416.362C254.268 411.256 248.14 406.83 243.374 399.34C239.97 393.893 240.65 387.765 241.331 381.297C242.012 374.488 242.693 367.679 238.608 361.551ZM241.331 400.362C246.438 408.192 252.566 412.958 259.375 418.065C266.524 423.512 274.014 429.299 279.802 439.172C293.079 461.982 303.633 503.176 296.824 530.071C278.78 601.564 237.246 629.14 192.988 658.418C142.262 692.122 89.834 726.847 70.7691 831.363C66.0029 856.556 58.5131 869.833 48.6403 869.833C33.3203 869.833 14.2555 837.491 8.46793 809.915C-1.74538 761.913 1.65905 704.718 18.3408 640.034C29.5754 597.138 61.2367 565.817 91.8766 535.177C107.877 519.517 124.559 503.176 137.836 485.472C140.9 481.047 146.348 475.259 152.135 468.791C171.881 446.662 198.435 416.703 194.01 398.659C192.307 392.191 188.222 385.723 184.137 378.914C179.711 372.105 175.285 364.615 173.583 357.806C171.54 348.955 174.604 347.252 177.668 345.891C179.371 345.21 180.732 344.188 181.073 342.486C181.754 340.103 180.052 336.018 170.519 324.783C165.072 318.315 149.752 310.144 135.113 302.314C119.793 294.143 102.09 284.611 100.728 279.164C97.3237 266.908 98.345 262.141 100.047 260.099C100.728 259.077 102.09 258.737 103.452 258.737C118.431 258.737 161.668 300.952 197.074 340.784C197.414 341.124 197.755 341.465 197.755 341.465C204.563 346.571 210.351 347.593 215.458 348.955C222.607 350.657 229.075 352.019 236.565 362.913C240.31 368.019 239.629 374.488 238.948 380.956C238.267 387.765 237.587 394.574 241.331 400.362Z" fill="#C4C4C4"/>
<path d="M210.691 524.283C205.585 524.283 200.818 530.411 197.074 534.837C196.393 535.858 195.712 536.539 195.031 537.22C191.626 540.965 188.562 545.05 185.158 549.136C183.115 551.519 181.073 554.242 179.03 556.625L178.69 556.966C171.881 565.136 169.157 570.243 170.179 572.967C170.519 573.647 171.2 574.669 172.902 575.009C173.243 575.009 173.583 575.009 173.583 575.009C187.201 574.669 198.095 562.413 203.542 554.923C208.649 547.774 212.394 540.284 213.415 534.156C213.755 532.794 214.436 527.688 212.734 525.305C212.734 524.624 211.713 524.283 210.691 524.283ZM212.734 534.156C211.372 539.944 207.968 547.433 202.861 554.242C197.754 561.392 187.201 573.307 174.264 573.647V574.669V573.988C173.923 573.988 173.923 573.988 173.583 573.988C172.221 573.988 172.221 573.307 172.221 573.307C171.881 572.286 171.881 569.222 180.392 559.008L180.732 558.668C182.775 556.285 184.818 553.561 186.86 551.178C189.924 547.433 193.329 543.348 196.733 539.263C197.414 538.582 198.095 537.56 198.776 536.539C201.84 532.454 206.606 526.666 211.032 526.666C211.713 526.666 212.394 527.007 212.734 527.347C213.415 528.028 213.074 531.432 212.734 534.156Z" fill="#C4C4C4"/>
<path d="M569.859 869.152C615.138 864.046 663.481 811.618 664.162 767.36C665.184 699.271 626.033 645.141 588.243 592.712C581.775 583.861 575.307 574.669 568.838 565.477L565.093 560.03C547.39 534.496 527.304 505.218 520.495 473.897C515.048 447.343 506.537 385.382 515.729 363.934C522.538 348.274 541.603 339.422 560.327 330.571C573.264 324.443 585.52 318.996 594.031 311.165L594.371 310.825C623.65 284.27 623.65 284.27 643.395 283.589C649.523 283.249 657.013 283.249 667.567 282.228C681.865 280.866 690.036 278.823 696.164 277.461C699.909 276.44 702.973 275.759 705.356 275.759C711.484 275.759 716.591 280.185 733.613 294.484C783.998 337.039 782.977 410.915 781.956 482.408C780.934 572.286 779.573 665.567 881.365 694.845C896.004 698.931 910.303 701.314 923.921 701.314C962.051 701.314 994.733 684.292 1018.22 651.949C1052.61 604.628 1061.8 530.411 1041.03 467.429C993.031 322.4 878.642 239.672 755.401 160.689C643.395 88.8556 536.836 69.1099 445.938 56.1731C439.469 55.1517 433.001 54.8113 427.214 54.8113C390.105 54.8113 372.743 73.5357 350.614 97.3667C342.103 106.559 333.251 115.751 322.357 125.624C309.76 136.518 293.76 144.008 278.44 151.497C253.247 163.413 229.756 174.647 219.883 199.5C199.116 252.269 250.183 293.803 295.121 330.23C315.888 346.912 335.634 362.913 347.209 378.914C393.169 441.896 379.211 548.455 337.677 608.032C324.74 626.757 299.888 649.907 273.673 674.078C230.097 714.591 180.732 760.211 171.881 799.021C167.795 817.065 168.817 829.661 175.285 837.832C180.392 844.3 189.584 847.704 202.521 847.704C223.969 847.704 254.609 838.853 286.951 829.661C326.783 818.086 371.721 805.149 409.851 805.149C428.235 805.149 443.214 807.873 456.151 814.001C470.79 820.809 483.387 830.342 495.643 839.874C515.729 855.535 534.453 870.174 561.008 870.174C564.072 869.493 566.795 869.493 569.859 869.152ZM456.832 811.958C443.895 806.17 428.235 803.106 409.851 803.106C371.381 803.106 326.102 816.043 286.27 827.618C253.928 836.81 223.288 845.662 202.18 845.662C189.584 845.662 181.413 842.598 176.307 836.47C170.179 828.98 169.498 816.724 173.243 799.362C181.754 761.232 231.118 715.612 274.354 675.44C300.568 650.928 325.761 627.778 338.698 609.054C380.573 548.795 394.19 441.555 348.231 377.892C336.656 361.891 316.91 345.891 295.802 328.868C251.204 292.781 200.478 251.928 220.905 200.181C230.437 176.009 253.928 164.775 278.78 153.199C294.44 145.71 310.441 138.22 323.038 126.985C333.932 117.453 342.783 107.92 351.295 98.7285C373.083 75.2379 390.446 56.8539 426.873 56.8539C432.661 56.8539 438.789 57.1944 445.257 58.2157C536.155 71.1526 642.714 90.8983 754.039 162.391C876.94 241.034 990.988 323.762 1038.65 468.45C1059.08 530.751 1050.23 604.287 1016.18 651.269C993.031 683.27 961.029 699.952 923.24 699.952C909.963 699.952 895.664 697.909 881.365 693.484C836.086 680.547 807.83 653.652 794.212 611.437C781.956 573.647 782.637 527.347 783.318 482.408C784.339 410.575 785.02 336.018 734.294 293.122C710.122 272.695 709.441 272.355 695.483 275.759C689.355 277.121 681.185 279.164 666.886 280.525C656.332 281.547 648.842 281.887 643.055 281.887C622.628 282.568 622.628 282.568 592.669 309.463L592.329 309.804C583.818 317.293 571.902 323.081 559.306 328.868C540.241 337.72 520.836 346.912 513.686 362.913C504.154 384.701 512.665 447.002 518.452 473.897C524.921 505.559 545.347 534.837 563.051 560.37L566.795 565.817C572.923 575.009 579.732 584.201 586.201 593.053C623.99 645.481 662.801 699.271 661.779 766.679C661.098 810.256 613.436 861.663 569.178 866.769C566.455 867.11 563.391 867.11 560.667 867.11C534.453 867.11 516.069 852.471 496.324 837.151C484.408 828.64 471.812 818.767 456.832 811.958Z" fill="#C4C4C4"/>
<path d="M543.304 1056.06C534.793 1068.99 523.899 1085.33 527.644 1096.23C529.006 1100.65 533.091 1104.06 538.879 1106.44C539.9 1106.78 541.262 1107.12 542.624 1107.12C555.901 1107.12 576.668 1086.7 595.052 1068.99C606.627 1057.76 617.862 1046.86 624.33 1043.8C655.991 1029.5 699.909 1022.69 738.379 1016.56C753.699 1014.18 767.997 1011.8 781.275 1009.42C811.574 1003.63 840.852 1000.56 868.088 1000.56C957.624 1000.56 1033.2 1032.91 1091.76 1096.57C1098.23 1103.72 1108.1 1107.46 1120.36 1107.46C1158.83 1107.46 1224.53 1070.01 1271.17 1000.9C1299.09 959.37 1339.26 874.6 1297.39 772.807C1280.71 731.954 1255.51 712.889 1218.74 712.889C1190.83 712.889 1158.83 723.102 1121.72 735.018C1076.1 749.657 1024.69 766.339 969.199 766.339C925.963 766.339 886.472 756.466 848.001 736.039C729.527 672.717 726.123 557.647 736.336 464.365C740.421 427.938 733.953 399.34 717.612 381.297C706.037 368.7 690.717 361.892 672.673 361.892C638.629 361.892 595.733 388.446 580.413 439.172C565.774 486.834 600.159 530.411 639.99 580.456C684.929 636.97 735.655 701.314 725.782 787.106C721.016 829.661 705.356 870.514 684.248 896.048C668.247 915.453 653.949 917.496 639.31 919.198C627.734 920.56 616.159 921.922 602.201 930.773C591.647 937.582 588.243 948.817 584.839 961.073C582.455 969.243 580.072 978.095 574.966 985.244C572.242 988.989 567.476 990.01 562.029 990.691C555.22 991.712 547.73 993.074 543.645 1001.93C540.921 1008.05 544.666 1015.2 548.071 1022.01C551.135 1027.8 554.199 1033.93 553.177 1038.69C552.156 1042.1 548.071 1048.57 543.304 1056.06ZM549.432 1020.65C546.028 1013.84 542.624 1007.37 545.007 1002.27C548.752 994.436 555.56 993.415 562.029 992.053C567.476 991.032 572.923 990.351 575.987 985.584C581.434 978.095 583.817 969.584 586.2 961.073C589.605 949.497 592.669 938.263 602.882 931.794C616.5 923.283 628.075 921.922 639.31 920.56C654.63 918.517 669.269 916.815 685.61 896.729C707.058 870.514 722.718 829.661 727.484 786.765C737.357 700.293 686.291 635.608 641.352 578.754C601.861 529.049 567.816 485.813 582.115 439.172C597.095 389.468 638.969 363.253 672.333 363.253C689.695 363.253 705.015 369.722 715.909 381.978C731.57 399.681 738.038 427.938 733.953 463.684C723.74 557.647 727.144 673.738 846.64 737.401C885.45 758.168 925.282 768.041 968.859 768.041C1024.69 768.041 1076.44 751.359 1122.06 736.72C1158.83 724.805 1190.83 714.591 1218.4 714.591C1254.83 714.591 1278.32 732.635 1295 773.148C1336.54 873.919 1296.71 958.008 1269.13 999.202C1224.87 1065.59 1158.49 1105.08 1120.02 1105.08C1108.1 1105.08 1099.25 1101.68 1092.78 1094.87C1033.54 1030.86 957.965 998.181 867.407 998.181C839.831 998.181 810.553 1001.24 779.913 1007.03C766.635 1009.76 752.337 1011.8 737.017 1014.18C698.206 1020.31 654.289 1027.12 622.287 1041.76C615.479 1044.82 604.584 1055.38 592.328 1067.29C574.285 1084.99 553.858 1105.08 541.262 1105.08C540.24 1105.08 539.219 1105.08 538.198 1104.74C532.751 1102.7 529.346 1099.97 527.985 1095.89C524.58 1085.67 535.134 1070.01 543.304 1057.42C548.411 1049.93 552.496 1043.46 553.518 1039.03C555.901 1032.91 552.837 1026.44 549.432 1020.65Z" fill="#C4C4C4"/>
<path d="M811.234 899.792C812.596 900.473 814.298 900.814 815.66 900.814C821.788 900.814 827.575 895.026 833.022 889.579C836.086 886.515 838.81 883.791 841.193 882.43C844.257 881.068 846.98 880.387 850.044 880.387C855.492 880.387 859.917 883.11 865.364 885.834C867.407 886.855 869.109 887.877 871.492 888.898C876.599 891.281 881.706 892.643 886.812 892.643C891.919 892.643 896.685 891.622 901.792 890.26C906.899 888.898 912.346 887.536 918.814 887.536H919.495C932.432 887.536 944.347 894.345 955.582 900.814C966.817 907.282 978.732 914.091 991.669 914.091C997.797 914.091 1003.58 912.729 1009.71 909.665C1014.48 907.282 1018.22 904.218 1021.29 901.494C1026.73 897.069 1031.16 893.324 1038.99 893.324C1041.37 893.324 1043.76 893.664 1046.48 894.345C1068.27 899.452 1077.8 919.538 1087.33 938.943C1091.76 948.135 1096.19 957.327 1101.97 964.817C1113.21 979.797 1128.19 988.308 1143.51 988.308H1144.19C1159.51 987.967 1174.15 979.456 1185.72 964.477C1201.04 944.05 1229.3 877.323 1217.72 844.3C1214.32 834.427 1207.51 828.299 1197.98 825.916C1194.57 824.895 1191.51 824.554 1188.45 824.554C1178.57 824.554 1171.08 828.98 1162.57 834.087C1160.53 835.108 1158.49 836.47 1156.44 837.491C1139.08 847.364 1121.72 849.407 1103.33 851.449C1096.19 852.13 1088.7 853.151 1081.21 854.513C1072.69 856.215 1065.2 858.939 1058.06 861.663C1048.52 865.407 1039.33 868.812 1029.46 868.812C1022.65 868.812 1016.18 867.11 1009.37 863.705C995.414 856.896 980.094 850.428 963.072 850.428C957.625 850.428 951.837 851.109 946.39 852.471C943.666 853.152 941.283 853.832 938.9 854.513C929.027 856.896 919.835 859.279 910.643 859.279C903.154 859.279 896.004 857.577 888.855 854.513L885.791 853.151C872.854 847.364 859.577 840.895 845.959 840.895C838.469 840.895 831.66 842.598 824.852 846.343C816.341 851.109 804.765 870.855 805.106 884.813C804.085 892.303 806.468 897.069 811.234 899.792ZM824.852 848.726C831.32 844.981 838.129 843.279 845.278 843.279C858.556 843.279 871.492 849.407 884.429 855.194L887.493 856.556C894.643 859.96 902.132 861.663 909.963 861.663C919.495 861.663 929.027 859.279 938.9 856.896C941.283 856.215 944.007 855.535 946.39 854.854C951.837 853.492 957.284 852.811 962.731 852.811C979.413 852.811 994.393 859.279 1008.35 865.748C1015.5 869.152 1022.31 870.855 1029.12 870.855C1039.33 870.855 1048.52 867.45 1058.4 863.365C1065.55 860.641 1073.03 857.577 1081.21 856.215C1088.7 854.854 1096.19 853.832 1103.33 853.151C1121.72 851.109 1139.42 849.066 1157.12 838.853C1159.17 837.491 1161.21 836.47 1163.25 835.448C1171.76 830.342 1178.91 826.256 1188.45 826.256C1191.51 826.256 1194.23 826.597 1197.64 827.618C1206.83 830.001 1212.96 835.789 1216.02 844.981C1227.6 877.663 1199.68 943.369 1184.36 963.796C1173.13 978.435 1158.83 986.605 1144.19 986.946H1143.51C1128.87 986.946 1114.57 978.775 1103.33 964.136C1097.89 956.646 1093.46 947.795 1089.04 938.262C1079.5 918.517 1069.63 898.09 1047.16 892.643C1044.44 891.962 1041.71 891.622 1039.33 891.622C1031.16 891.622 1026.39 895.707 1020.61 900.133C1017.2 902.856 1013.8 905.58 1009.37 907.963C1003.58 911.027 997.797 912.389 992.009 912.389C979.753 912.389 968.519 906.261 956.944 899.452C945.369 892.983 933.113 886.175 919.835 886.175H919.155C912.686 886.175 906.899 887.536 901.792 888.898C896.685 890.26 892.259 891.281 887.153 891.281C882.046 891.281 877.62 890.26 872.854 887.877C870.812 886.855 868.769 885.834 867.067 884.813C861.62 881.749 856.853 879.025 851.066 879.025C848.002 879.025 844.938 879.706 841.533 881.408C838.81 882.77 836.086 885.494 832.682 888.898C827.575 894.005 822.128 899.452 816.681 899.452C815.319 899.452 814.298 899.111 812.936 898.43C808.851 896.047 806.468 891.962 806.468 885.834C805.787 871.876 817.362 852.811 824.852 848.726Z" fill="#C4C4C4"/>
<path d="M591.648 1020.31C593.69 1020.99 597.776 1021.33 602.542 1021.33C612.755 1021.33 651.225 1019.63 711.143 999.883C761.189 983.201 819.745 974.35 876.259 974.35C968.859 974.35 1030.48 988.308 1109.8 1064.23C1115.59 1069.67 1123.08 1072.4 1132.27 1072.4C1166.66 1072.4 1218.74 1034.95 1251.09 986.946C1276.28 949.497 1312.71 873.238 1274.92 781.659C1258.58 742.508 1238.49 737.061 1218.74 737.061C1194.57 737.061 1164.27 746.934 1129.21 758.168C1081.89 773.488 1028.44 790.51 969.2 790.51C921.878 790.51 878.642 779.616 836.427 757.147C703.654 686.335 701.951 554.242 712.165 461.301C715.229 432.364 710.803 409.554 699.568 396.957C692.759 389.468 683.568 385.382 672.673 385.382C647.48 385.382 615.819 406.149 603.563 445.3C592.669 481.047 623.309 519.517 659.056 564.456C704.335 621.65 760.848 693.143 749.954 788.808C746.89 816.044 739.4 842.258 728.166 866.089C710.122 904.219 686.631 936.561 657.694 962.434C638.629 979.456 619.564 991.372 605.606 999.883C593.01 1007.71 585.179 1012.48 585.86 1016.22C586.201 1017.93 587.903 1019.29 591.648 1020.31ZM606.287 1000.9C620.245 992.393 639.31 980.478 658.375 963.456C687.312 937.582 711.143 905.24 729.187 866.77C740.422 842.598 747.911 816.384 750.975 789.149C761.87 693.143 705.356 621.65 659.736 564.115C624.33 519.517 594.031 481.047 604.585 445.981C616.5 407.171 647.821 386.744 672.673 386.744C683.568 386.744 692.419 390.489 698.887 397.979C710.122 410.235 714.207 432.704 711.143 461.301C700.93 554.583 702.632 687.015 836.086 758.168C878.301 780.637 921.878 791.532 969.2 791.532C1028.78 791.532 1082.23 774.169 1129.55 758.849C1164.61 747.614 1194.57 737.742 1218.74 737.742C1237.81 737.742 1257.9 743.189 1273.9 781.999C1311.35 872.898 1274.92 948.817 1250.07 986.265C1218.74 1033.25 1165.98 1071.38 1132.27 1071.38C1123.42 1071.38 1115.93 1068.65 1110.48 1063.55C1072.01 1026.78 1036.27 1003.29 997.797 990.01C964.774 978.435 928.346 973.669 876.259 973.669C819.745 973.669 761.189 982.861 710.803 999.543C650.885 1019.29 612.755 1020.99 602.542 1020.99C597.776 1020.99 593.69 1020.65 591.648 1020.31C588.584 1019.63 586.882 1018.61 586.541 1017.25C586.541 1013.16 594.712 1008.05 606.287 1000.9Z" fill="#C4C4C4"/>
<path d="M672.673 408.873C654.29 408.873 634.203 427.257 627.735 443.938C623.309 454.832 626.714 473.557 636.586 494.324C645.778 513.729 658.375 528.368 667.567 531.092C668.929 531.432 670.29 531.773 671.652 531.773C673.354 531.773 674.716 531.432 676.078 531.092C687.993 527.007 687.653 519.857 686.972 503.856C686.632 493.984 685.951 480.706 687.993 462.322C690.717 437.47 686.972 418.745 681.525 412.958C680.504 410.575 678.121 408.873 672.673 408.873ZM686.972 461.641C684.929 480.366 685.27 493.643 685.951 503.516C686.632 519.517 686.632 525.304 676.078 529.049C673.695 530.071 670.971 530.071 668.248 529.049C659.396 526.326 647.481 512.027 638.289 492.962C628.416 472.876 625.352 454.492 629.437 443.938C635.906 427.937 655.311 409.894 672.673 409.894C677.44 409.894 679.482 411.256 680.844 412.958C685.951 419.086 689.355 437.47 686.972 461.641Z" fill="#C4C4C4"/>
<path d="M1084.61 902.176C1088.36 903.537 1090.4 904.899 1093.12 906.261C1094.14 906.942 1095.5 907.623 1096.87 908.304C1110.82 915.793 1122.74 923.624 1130.91 930.433C1135.68 934.518 1139.42 936.22 1142.49 936.22C1147.25 936.22 1149.98 932.135 1152.02 928.39C1160.19 914.432 1163.25 903.538 1166.66 884.473C1167 882.09 1167 879.026 1165.3 876.642C1162.91 873.578 1157.81 873.238 1150.66 875.281C1129.21 881.409 1114.57 884.132 1096.19 887.537C1093.12 888.218 1089.72 888.898 1086.31 889.579C1082.91 890.26 1080.18 892.643 1079.84 895.707C1079.5 897.069 1079.84 900.133 1084.61 902.176ZM1086.65 891.622C1090.06 890.941 1093.46 890.26 1096.53 889.579C1114.91 886.175 1129.55 883.451 1151.34 877.323C1154.06 876.642 1156.44 876.302 1158.15 876.302C1160.87 876.302 1162.57 876.983 1163.59 878.345C1164.96 880.047 1164.95 882.77 1164.61 884.473C1161.21 903.197 1158.49 913.751 1150.32 927.709C1147.93 931.794 1145.55 934.518 1142.49 934.518C1139.76 934.518 1136.36 932.816 1131.93 929.071C1123.76 921.922 1111.85 914.432 1097.55 906.602C1096.19 905.921 1095.16 905.24 1093.8 904.559C1091.08 902.857 1088.7 901.835 1084.95 900.133C1082.23 899.112 1080.87 897.41 1081.21 895.707C1081.89 894.005 1083.93 891.962 1086.65 891.622Z" fill="#C4C4C4"/>
<path d="M772.083 937.922C775.147 937.922 779.232 937.582 783.998 937.242C786.041 936.901 835.405 931.454 888.514 931.454C909.282 931.454 927.665 932.475 943.326 933.837C1021.63 942.348 1089.38 979.457 1121.72 1012.82C1127.85 1018.95 1134.66 1022.01 1142.83 1022.01C1160.87 1022.01 1183.34 1006.35 1204.11 978.776C1240.53 930.433 1251.77 838.172 1233.38 802.085C1228.62 792.553 1221.81 787.446 1213.98 787.446C1213.3 787.446 1212.62 787.446 1211.94 787.446C1197.64 788.808 1177.89 794.596 1152.7 802.085C1105.72 816.044 1041.03 834.768 971.242 835.789C911.665 836.811 843.235 812.98 820.085 801.745C812.596 798 807.489 796.298 804.084 796.298C797.276 796.298 796.935 802.766 796.254 813.66C795.914 822.171 795.233 834.087 791.148 847.705C783.317 872.217 774.806 890.941 768.338 904.559C761.189 919.538 757.103 928.73 760.167 933.497C761.869 936.901 765.614 937.922 772.083 937.922ZM769.359 905.58C775.828 891.962 784.339 873.238 792.169 848.386C796.595 834.768 796.935 822.852 797.276 814.001C797.616 803.447 797.956 797.319 804.084 797.319C807.148 797.319 812.255 799.021 819.404 802.426C842.214 813.66 908.601 836.47 967.497 836.47C968.519 836.47 969.88 836.47 970.902 836.47C1041.03 835.449 1105.38 816.384 1152.7 802.426C1177.89 794.936 1197.64 789.149 1211.94 787.787C1220.45 786.765 1227.26 791.532 1232.36 801.745C1250.41 837.832 1239.17 929.411 1203.08 977.414C1182.32 1004.65 1160.53 1020.31 1142.49 1020.31C1134.66 1020.31 1127.85 1017.25 1122.06 1011.46C1089.38 978.095 1021.63 940.646 942.985 932.135C927.325 930.433 908.941 929.752 888.174 929.752C835.065 929.752 785.7 935.199 783.658 935.539C778.892 936.22 775.147 936.22 772.083 936.22C765.955 936.22 762.55 935.199 760.848 932.816C758.125 929.411 762.55 920.56 769.359 905.58Z" fill="#C4C4C4"/>
<path d="M695.824 977.073C698.888 977.073 702.973 976.392 707.399 974.69C755.061 958.008 810.213 950.178 876.259 950.178C958.646 950.178 1040.01 957.668 1132.61 1048.91C1135.34 1051.63 1138.74 1052.99 1143.17 1052.99C1169.04 1052.99 1217.04 1003.29 1231 973.328C1232.36 970.605 1233.72 967.881 1235.09 964.817C1253.13 927.709 1283.43 865.748 1252.45 790.851C1240.19 760.891 1228.62 760.891 1218.4 760.891C1197.98 760.891 1169.38 770.083 1136.36 780.637C1087.33 796.298 1032.18 814.341 969.2 814.341C915.41 814.341 871.493 804.468 827.575 782.339C820.767 778.935 814.298 775.19 808.511 771.786C796.936 764.977 787.744 759.87 781.956 759.87C777.53 759.87 775.147 762.934 775.147 769.743C775.147 770.764 775.147 772.467 775.488 774.85C781.616 839.534 756.763 899.792 701.271 954.263C691.398 963.796 687.313 970.605 689.015 974.69C689.696 976.052 692.079 977.073 695.824 977.073ZM701.952 954.263C737.698 919.198 761.189 881.408 771.743 841.577C780.254 809.575 777.871 784.723 776.849 774.169C776.509 771.786 776.509 770.083 776.509 769.062C776.509 761.232 779.913 760.211 782.296 760.211C787.744 760.211 797.276 765.658 808.511 772.126C814.298 775.531 820.767 779.275 827.575 782.68C871.833 805.149 915.41 815.022 969.54 815.022C1032.86 815.022 1088.36 796.978 1137.04 781.318C1170.06 770.764 1198.66 761.572 1218.75 761.572C1228.62 761.572 1239.85 761.572 1251.77 790.851C1282.41 865.408 1252.45 927.368 1234.41 964.136C1233.04 967.2 1231.34 969.924 1230.32 972.647C1216.36 1002.27 1168.7 1051.63 1143.17 1051.63C1139.08 1051.63 1136.02 1050.27 1133.63 1047.89C1090.74 1005.67 1046.14 977.754 997.457 963.115C954.221 950.178 914.048 948.816 876.599 948.816C810.553 948.816 755.061 956.987 707.399 973.328C703.314 974.69 699.228 975.711 696.164 975.711C693.781 975.711 691.058 975.371 690.036 972.988C689.015 971.286 689.355 966.179 701.952 954.263Z" fill="#C4C4C4"/>
<path d="M482.365 628.119C479.982 626.076 477.939 625.055 476.237 625.055C471.471 625.055 468.067 631.183 462.96 640.375C457.853 649.907 450.704 662.844 438.108 676.121L434.363 679.866C420.064 694.846 413.596 701.655 415.298 705.4C415.979 707.102 418.362 707.783 422.447 707.783C425.852 707.783 431.299 707.102 440.15 706.081C443.895 705.74 447.3 705.4 451.044 705.4C480.663 705.4 505.175 722.081 523.218 733.997C533.772 741.146 541.943 746.593 548.071 746.593C550.454 746.593 552.497 745.572 554.199 743.529C572.923 719.698 506.877 650.588 482.365 628.119ZM552.837 742.848C551.475 744.551 550.113 745.232 548.071 745.232C542.624 745.232 534.453 739.784 524.24 732.976C506.196 720.72 481.344 704.038 451.044 704.038C447.3 704.038 443.555 704.378 439.81 704.719C431.299 706.08 425.852 706.421 422.447 706.421C419.043 706.421 417.341 706.081 417 705.059C415.979 702.336 423.809 694.165 435.724 681.228L439.469 677.483C452.066 664.206 459.215 650.929 464.662 641.396C469.428 632.885 472.492 627.098 476.237 627.098C477.599 627.098 479.301 628.119 481.344 629.821C511.643 657.057 569.519 721.4 552.837 742.848Z" fill="#C4C4C4"/>
<path d="M483.047 656.716C471.131 656.716 455.811 675.44 455.811 684.292C455.811 688.037 458.194 690.079 461.939 690.079C479.642 690.42 498.026 701.654 511.644 709.485C519.814 714.251 525.602 717.655 529.006 717.655C530.028 717.655 531.049 717.315 531.73 716.634C532.411 715.953 532.751 714.591 532.751 712.548C531.389 696.207 500.409 663.525 487.813 657.056C486.11 657.056 484.408 656.716 483.047 656.716ZM530.028 713.229C530.028 714.591 530.028 715.272 529.687 715.272C529.687 715.272 529.347 715.612 529.006 715.612C526.283 715.612 520.155 711.868 513.006 707.782C499.388 699.612 480.323 688.037 462.279 688.037C459.556 688.037 458.535 687.015 458.535 684.632C458.535 676.802 472.833 659.439 483.387 659.439C484.749 659.439 485.77 659.78 486.791 660.12C499.728 666.589 528.666 698.59 530.028 713.229Z" fill="#C4C4C4"/>
<path d="M440.831 347.933C443.895 347.933 445.938 343.848 448.321 334.656C456.832 299.931 485.089 253.971 529.006 229.459C573.264 204.607 602.882 198.138 618.883 194.734C626.713 193.031 630.799 192.01 631.82 189.967C632.16 189.287 632.16 188.265 631.479 187.244C628.415 181.797 573.604 150.816 494.281 144.688L490.876 144.348C483.727 143.667 477.599 143.327 471.811 143.327C451.044 143.327 434.703 149.114 395.892 181.797C389.764 186.903 383.636 191.67 377.509 196.436C358.784 210.735 342.443 223.331 343.464 237.289C344.145 248.183 355.039 258.737 377.168 270.993C401.68 284.611 416.66 311.506 426.532 329.209C432.66 340.444 436.746 347.933 440.831 347.933ZM377.509 269.972C356.061 258.056 345.166 247.162 344.145 236.949C343.124 223.331 359.125 211.075 377.509 196.776C383.636 192.01 389.764 187.244 395.892 182.137C434.363 149.455 451.044 143.667 471.13 143.667C476.918 143.667 483.046 144.008 490.195 144.688L493.6 145.029C570.88 151.157 627.054 181.797 629.777 187.244C630.458 188.265 630.118 188.946 630.118 189.287C629.437 190.989 625.011 191.67 618.202 193.372C602.201 196.776 572.583 203.245 527.985 228.097C483.727 252.609 455.47 298.909 446.959 333.975C444.916 342.486 442.874 346.572 440.491 346.572C437.086 346.572 432.66 338.401 426.873 328.528C417.34 310.825 402.361 283.589 377.509 269.972Z" fill="#C4C4C4"/>
<path d="M447.3 406.49C450.364 406.49 452.407 403.085 453.768 395.255C462.62 348.274 481.685 281.887 545.688 246.481C565.434 235.587 587.903 226.735 614.117 219.927C619.224 218.565 625.012 214.82 630.459 211.075C637.608 206.309 644.757 201.543 651.566 201.543C652.247 201.543 653.268 201.543 653.949 201.883C657.694 202.564 660.418 204.607 663.141 206.99C666.205 209.373 669.269 211.756 673.014 211.756C674.376 211.756 676.078 211.415 677.78 210.735C680.504 209.713 682.206 207.33 683.568 205.288C685.611 202.224 687.653 199.5 693.441 199.84C699.228 200.181 702.292 204.607 705.697 209.373C708.08 212.777 710.463 215.841 713.867 217.884C716.25 219.246 720.676 220.608 724.762 220.608C727.485 220.608 729.528 219.927 730.549 218.565C731.57 217.203 731.911 215.16 731.23 212.777C728.847 204.607 711.825 197.117 700.25 192.351C696.845 190.989 694.122 189.627 692.079 188.606C675.057 179.754 658.375 171.924 643.736 165.796C583.477 139.241 528.326 123.241 475.557 116.432C469.769 115.751 464.322 115.41 459.896 115.41C434.023 115.41 413.596 126.645 373.764 164.094C363.891 173.286 353.678 181.116 344.146 188.606C322.357 205.628 304.995 219.246 305.335 235.927C305.675 249.205 317.251 263.503 341.762 280.866C381.254 308.442 407.468 350.657 424.831 378.573C435.044 394.915 442.193 406.49 447.3 406.49ZM341.762 279.504C317.591 262.482 306.016 248.524 305.675 235.587C305.335 219.246 322.357 205.968 344.146 188.946C354.018 181.456 364.232 173.286 374.105 164.434C413.937 127.326 434.023 116.091 459.556 116.091C464.322 116.091 469.429 116.432 475.216 117.113C527.985 123.921 582.797 139.922 643.055 166.137C657.354 172.265 674.376 180.095 691.058 188.946C693.1 189.968 695.824 191.329 699.228 192.691C710.463 197.457 727.485 204.947 729.528 212.437C730.209 214.479 729.868 216.182 729.187 217.203C728.166 218.565 725.783 218.905 724.421 218.905C721.017 218.905 716.591 217.544 714.208 216.182C711.144 214.48 708.761 211.075 706.378 208.011C702.973 203.245 699.569 198.479 693.441 198.138C686.972 197.457 684.93 200.862 682.887 203.926C681.525 205.968 680.163 208.011 677.44 209.032C675.738 209.713 674.376 210.054 673.014 210.054C669.269 210.054 666.546 208.011 663.822 205.628C661.099 203.585 658.035 201.202 653.949 200.521C653.268 200.521 652.247 200.181 651.566 200.181C644.417 200.181 636.927 205.288 629.778 210.054C623.99 213.799 618.884 217.544 613.777 218.905C587.563 225.714 565.093 234.566 545.348 245.46C481.004 281.206 461.599 347.933 452.747 394.915C451.385 401.724 449.683 405.128 447.3 405.128C442.874 405.128 435.384 393.553 425.171 377.212C407.809 349.295 381.254 307.421 341.762 279.504Z" fill="#C4C4C4"/>
<path d="M572.924 833.406C596.074 830.682 618.202 814.681 628.756 792.552C638.629 772.466 643.736 738.081 613.436 689.738C600.499 668.971 586.201 647.864 572.583 627.437C533.432 569.221 496.324 514.41 481.344 459.258C463.982 396.957 477.94 345.55 524.921 297.547C565.774 256.013 619.564 232.182 672.674 232.182C712.505 232.182 748.252 246.14 773.104 271.674C800.34 299.59 813.958 340.784 812.255 390.148C811.915 401.723 811.234 413.639 810.894 426.235C808.851 470.833 806.468 521.559 813.617 563.774C821.788 612.117 841.534 642.076 873.876 655.354C891.238 662.503 907.58 665.907 922.559 665.907C949.795 665.907 972.945 653.992 989.627 631.523C1017.88 593.393 1024.69 527.687 1006.65 468.45C967.498 341.124 873.876 265.205 734.975 183.839C629.437 122.219 540.581 102.814 459.896 91.579C453.768 90.8982 448.321 90.2173 442.874 90.2173C409.17 90.2173 393.169 107.239 373.083 129.028C365.253 137.198 357.423 146.05 347.209 154.902C335.634 165.115 325.761 171.243 316.91 176.69C302.611 185.541 290.355 193.031 277.078 213.117C250.183 253.29 286.27 277.802 324.059 303.675C344.145 317.293 364.912 331.592 375.807 348.274C445.598 453.811 417.341 566.498 367.976 636.97C353.678 657.056 333.251 676.121 311.122 696.207C284.227 720.719 256.651 746.252 240.651 774.509C233.842 786.765 231.799 794.936 234.863 799.702C236.906 803.106 241.672 804.808 248.821 804.808C261.758 804.808 282.525 799.361 306.697 793.233C340.401 784.382 382.275 773.488 419.383 773.488C439.129 773.488 455.811 776.552 469.429 782.68C483.046 788.808 494.281 797.659 505.516 806.17C523.559 820.469 540.922 833.746 565.093 833.746C567.817 834.087 570.2 833.746 572.924 833.406ZM469.769 781.999C455.811 775.53 439.47 772.466 419.383 772.466C382.275 772.466 340.06 783.36 306.356 792.212C282.525 798.34 261.758 803.787 248.821 803.787C242.012 803.787 237.587 802.085 235.544 799.021C232.82 794.595 234.863 786.424 241.331 774.849C256.992 746.592 284.908 721.4 311.463 696.888C333.251 676.802 354.018 657.737 368.317 637.651C397.255 596.457 414.617 549.476 418.022 501.814C421.767 447.343 407.808 395.595 376.488 347.933C365.253 330.911 344.486 316.612 324.4 302.995C286.951 277.461 251.545 252.949 277.759 213.798C291.036 193.712 303.292 186.222 317.25 177.711C326.102 172.264 336.315 166.136 347.89 155.923C357.763 147.071 365.934 138.56 373.764 130.049C393.85 108.601 409.851 91.579 442.874 91.579C447.981 91.579 453.768 91.9195 459.556 92.9408C539.9 104.175 628.756 123.24 734.294 185.201C872.854 266.567 966.476 342.146 1005.63 469.131C1023.67 528.028 1016.86 593.393 988.946 631.523C972.604 653.651 949.454 665.567 922.559 665.567C907.58 665.567 891.579 662.163 874.216 655.013C842.214 642.076 822.809 612.458 814.638 564.115C807.489 521.9 809.872 471.514 811.915 426.576C812.596 413.979 812.936 402.064 813.277 390.489C814.639 340.784 801.021 299.25 773.785 270.993C748.933 245.119 712.846 231.161 672.674 231.161C619.224 231.161 565.093 254.992 524.24 296.867C499.388 322.4 483.727 348.614 476.918 377.211C470.79 402.745 471.812 429.64 480.323 459.258C495.643 514.41 532.751 569.562 571.902 627.778C585.52 648.204 599.819 668.971 612.755 690.079C642.714 738.081 637.608 772.126 628.075 791.871C617.522 813.66 596.074 829.32 572.924 832.044C570.2 832.384 567.817 832.384 565.093 832.384C541.262 832.384 524.24 819.107 506.197 805.149C494.962 796.978 483.387 788.127 469.769 781.999Z" fill="#C4C4C4"/>
<path d="M595.393 791.191C604.244 784.723 609.691 775.531 611.053 764.296C615.139 730.933 585.52 681.909 558.625 650.247C525.262 610.756 492.238 568.541 476.238 527.688C475.557 525.645 474.195 519.858 472.833 512.708C467.727 488.537 458.875 448.024 446.279 448.024C445.257 448.024 443.895 448.364 442.874 449.045C437.768 452.109 436.065 458.237 438.108 467.77C439.81 475.6 443.555 484.451 446.959 492.282C450.704 500.452 453.768 507.942 453.768 512.027C453.768 522.581 448.662 527.007 443.895 531.773C440.151 535.178 436.406 538.922 435.044 545.05C433.342 553.221 436.746 559.349 439.81 565.136C442.874 570.584 445.938 576.031 444.917 583.521C443.215 596.798 401 644.8 363.891 687.015C333.251 722.081 306.697 752.381 307.037 758.168C307.037 758.508 307.378 758.849 307.378 759.189C309.761 761.232 314.527 762.253 321.676 762.253C332.57 762.253 347.89 759.87 365.593 756.806C387.041 753.402 411.553 749.316 432.661 749.316C449.002 749.316 461.599 751.7 470.45 756.466C475.216 759.189 480.663 762.253 486.451 765.658C511.984 780.297 543.305 798.681 570.2 798.681C579.732 799.021 588.244 796.298 595.393 791.191ZM470.45 755.785C461.258 751.019 449.002 748.636 432.32 748.636C411.213 748.636 386.701 752.38 365.253 756.125C347.55 758.849 332.23 761.572 321.336 761.572C314.527 761.572 310.101 760.551 307.718 758.509C307.718 758.509 307.718 758.508 307.718 758.168C307.378 752.721 334.954 721.4 364.232 687.696C401.34 645.141 443.895 597.138 445.598 583.521C446.619 576.031 443.555 570.243 440.491 564.456C437.087 558.328 434.023 552.881 435.725 545.05C437.087 538.922 440.491 535.858 444.236 532.114C449.002 527.347 454.109 522.581 454.449 511.687C454.449 507.261 451.385 500.112 447.64 491.601C444.236 483.771 440.491 474.919 438.789 467.429C436.746 458.578 438.108 452.79 442.874 449.726C443.895 449.045 444.917 448.705 445.938 448.705C457.854 448.705 466.705 490.239 471.471 512.708C473.174 520.198 474.195 525.645 475.216 527.688C491.558 568.541 524.581 610.756 557.944 650.247C584.499 681.568 614.117 730.252 610.032 763.275C608.67 774.509 603.564 783.361 595.052 789.489C588.244 794.596 579.732 796.979 569.86 796.979C543.305 796.979 511.984 778.595 486.791 763.956C480.663 761.573 475.216 758.508 470.45 755.785Z" fill="#C4C4C4"/>
<path d="M583.477 748.636C586.541 720.719 556.582 676.462 541.603 659.78C515.729 630.502 497.685 605.649 485.77 589.308C473.854 572.967 467.386 564.115 463.301 564.115C460.237 564.115 458.875 567.86 457.853 577.052C450.364 646.503 405.425 683.951 378.87 706.421C367.295 716.294 359.465 722.762 359.125 728.209C359.125 729.911 359.465 731.273 360.827 732.294C363.21 735.018 367.295 736.039 373.083 736.039C379.551 736.039 388.062 734.337 397.595 732.635C410.191 730.252 424.49 727.869 438.789 727.869C458.534 727.869 474.535 732.975 487.812 742.848C506.196 757.147 533.432 772.467 554.88 772.467C562.71 772.467 569.178 770.424 574.626 766.679C579.392 762.253 582.796 756.125 583.477 748.636ZM554.199 771.105C533.091 771.105 506.196 755.785 487.812 741.827C474.535 731.614 458.194 726.507 438.448 726.507C423.809 726.507 409.51 729.23 396.914 731.273C387.382 732.975 378.871 734.678 372.402 734.678C366.955 734.678 363.21 733.656 360.827 731.273C359.806 730.252 359.465 729.23 359.465 727.869C359.806 723.102 367.636 716.294 378.87 706.761C405.766 684.292 450.704 646.503 458.194 576.712C459.215 568.541 460.577 564.796 462.62 564.796C466.365 564.796 473.173 574.329 484.408 589.649C496.324 605.99 514.367 631.183 540.241 660.12C555.22 676.802 585.179 720.719 582.115 748.295C581.434 755.785 578.03 761.573 572.923 765.317C568.157 769.062 561.689 771.105 554.199 771.105Z" fill="#C4C4C4"/>
<path d="M874.556 468.451C871.152 521.56 886.472 558.328 901.792 575.009C908.941 582.499 916.771 586.585 923.58 586.585C933.453 586.585 940.943 578.754 944.688 564.796C967.838 473.557 888.855 377.552 878.982 369.381C876.258 366.998 874.216 366.658 872.854 368.02C870.471 370.403 871.152 378.573 872.514 393.553C874.216 410.916 876.599 437.47 874.556 468.451ZM874.216 369.381C874.556 369.041 874.556 369.041 874.897 369.041C875.237 369.041 876.258 369.381 877.961 370.743C887.493 378.573 966.136 473.898 942.986 564.115C939.581 577.393 932.772 584.882 923.58 584.882C917.112 584.882 909.622 580.797 902.813 573.648C887.493 557.306 872.514 521.219 875.918 468.451C877.961 437.13 875.578 410.916 874.216 393.212C873.194 380.616 872.514 371.084 874.216 369.381Z" fill="#C4C4C4"/>
<path d="M848.342 465.386C844.257 517.134 854.47 559.008 876.94 583.18C888.855 595.776 903.154 602.925 917.452 602.925C938.22 602.925 954.561 588.627 959.327 566.498C973.626 501.814 951.497 443.257 930.389 405.809C905.537 361.891 873.876 330.571 858.556 320.357C853.109 316.612 849.023 314.229 846.64 314.229C845.619 314.229 844.938 314.57 844.597 315.251C842.555 317.634 843.576 323.762 844.938 336.358C848.002 358.146 853.109 399.681 848.342 465.386ZM845.278 315.591C845.619 315.251 845.959 314.91 846.64 314.91C848.683 314.91 852.768 317.293 857.875 320.698C892.26 343.848 984.179 448.704 958.306 565.817C953.539 587.605 937.539 601.564 917.112 601.564C902.813 601.564 888.855 594.755 877.28 582.158C855.151 557.987 844.938 516.453 848.683 465.386C853.789 399.681 848.342 358.146 845.619 336.018C844.598 324.443 843.917 317.634 845.278 315.591Z" fill="#C4C4C4"/>
<path d="M828.596 468.791C824.511 533.135 837.107 583.861 863.322 611.777C876.939 626.076 893.281 633.906 910.984 633.906C944.688 633.906 973.285 606.671 982.136 566.158C995.073 506.24 983.839 447.343 949.113 391.17C913.707 333.975 864.683 297.207 838.469 280.185C825.192 271.674 819.404 267.929 817.362 270.653C815.659 272.695 816.681 279.164 819.064 291.42C823.83 317.634 834.384 373.126 828.596 468.791ZM818.043 270.993C818.383 270.653 818.723 270.653 819.404 270.653C822.128 270.653 828.256 274.398 838.129 280.866C924.942 337.38 1008.35 441.896 981.455 565.817C972.604 605.99 944.688 632.885 911.324 632.885C893.961 632.885 877.62 625.395 864.343 611.096C838.129 583.52 826.213 532.794 829.958 468.791C835.746 373.126 825.192 317.634 820.085 290.739C817.702 279.504 816.34 272.695 818.043 270.993Z" fill="#C4C4C4"/>
<path d="M436.746 254.992C446.278 254.992 453.427 245.8 460.577 231.842C473.514 207.33 500.409 195.755 515.048 189.286C522.538 186.222 525.261 184.861 524.921 182.818C524.58 181.116 522.878 180.435 512.665 179.754C482.365 177.711 414.957 206.309 407.127 228.097C405.425 233.204 406.787 237.629 410.872 241.374C422.447 250.907 430.277 254.992 436.746 254.992ZM409.17 229.118C416.319 209.373 479.301 182.137 509.26 182.137C510.282 182.137 511.303 182.137 512.324 182.137C518.112 182.477 520.835 182.818 521.857 183.158C520.495 184.18 517.09 185.541 514.026 186.903C499.387 193.372 471.811 205.287 458.534 230.48C450.023 246.14 443.895 252.609 436.746 252.609C430.618 252.609 423.468 248.524 412.234 239.332C408.829 236.608 407.808 233.204 409.17 229.118Z" fill="#C4C4C4"/>
<path d="M466.365 253.971C489.515 211.756 532.07 197.117 566.115 188.946C569.519 188.265 569.86 186.563 569.519 185.542C568.838 178.733 536.496 165.456 488.493 165.456C483.046 165.456 477.599 165.456 472.152 165.796C450.364 167.158 398.616 197.798 379.892 220.267C375.126 226.055 372.743 231.161 373.424 234.906C374.785 244.439 382.956 248.524 392.829 253.29C403.042 258.397 414.617 264.184 420.405 277.802C423.809 285.632 427.895 289.718 433.342 289.718C442.534 289.377 453.428 277.462 466.365 253.971ZM422.107 277.121C416.319 263.163 404.404 257.035 393.85 251.928C384.658 247.162 376.488 243.417 375.466 234.906C375.126 231.842 377.168 227.076 381.594 221.629C399.978 199.159 451.045 169.2 472.493 167.839C477.94 167.498 483.387 167.498 488.834 167.498C535.815 167.498 567.476 180.435 568.157 185.882C568.157 186.904 566.796 187.244 566.115 187.584C531.389 195.755 488.494 210.735 465.003 253.631C445.257 288.696 430.618 297.207 422.107 277.121Z" fill="#C4C4C4"/>
<path d="M914.388 545.731C916.09 545.731 917.792 544.369 919.154 541.986C925.623 529.39 925.623 486.494 907.92 460.279C905.536 456.875 902.472 457.215 899.749 461.641C893.281 472.876 890.217 509.303 908.26 540.624C910.303 544.029 912.345 545.731 914.388 545.731ZM901.792 463.003C902.813 461.641 903.494 460.62 904.175 460.62C904.856 460.62 905.537 461.301 905.537 461.982C922.218 487.175 922.899 529.39 916.431 541.305C915.75 543.007 914.728 543.688 913.707 543.688C912.686 543.688 911.324 542.326 909.962 539.943C893.281 509.303 895.664 473.557 901.792 463.003Z" fill="#C4C4C4"/>
<path d="M566.455 913.751C617.181 907.963 677.44 847.705 693.781 801.745C722.038 721.74 671.992 657.397 623.649 595.095C577.009 535.177 533.092 478.323 554.539 409.213C573.264 348.955 633.522 316.613 680.844 316.613C706.377 316.613 728.166 325.805 742.805 342.146C760.167 361.551 766.976 391.17 762.551 427.597C747.231 552.88 742.805 690.079 882.727 730.592C898.728 735.358 914.729 737.741 929.708 737.741C988.605 737.741 1026.05 704.037 1047.16 675.781C1087.67 621.65 1101.63 540.284 1082.23 473.897C1065.55 417.384 1032.86 362.913 982.137 306.74C906.899 223.331 804.425 151.497 668.588 87.494L662.8 84.7704C605.606 57.8754 546.709 29.959 484.749 14.6391C481.004 13.6177 476.918 12.5964 472.493 11.5751C453.428 6.46841 429.256 0 408.83 0C400.659 0 393.51 1.02131 387.722 3.06397C378.871 6.12796 373.764 12.256 368.998 18.0435C365.253 22.4693 361.848 26.895 356.401 30.2995C352.997 32.3421 346.188 35.0657 339.039 37.7892C327.464 42.215 315.548 46.9812 311.803 51.0665C304.654 59.5776 306.696 64.6843 308.399 69.7909C309.76 73.1954 311.122 76.5998 309.42 81.7065L308.058 85.7918C297.845 116.091 297.845 116.091 274.014 122.9C269.588 124.262 263.801 125.964 256.992 128.007C237.246 134.135 229.416 144.008 221.586 153.2C215.458 160.349 210.01 167.158 199.457 172.605C199.116 172.605 198.776 172.605 198.435 172.605C186.179 172.605 93.2383 178.733 86.089 201.543C84.0463 207.671 88.4721 214.479 98.3449 221.288C110.941 230.14 120.814 231.161 126.942 231.161C130.006 231.161 132.73 230.821 135.113 230.48C137.496 230.14 139.539 230.14 141.581 230.14C149.071 230.14 156.561 232.183 167.115 257.716C169.498 263.844 171.54 269.291 173.243 273.376C181.413 294.484 181.413 294.824 201.84 303.335C206.946 305.378 213.074 308.101 221.245 311.846C247.459 324.102 252.906 337.72 259.715 355.083C263.46 364.275 267.545 374.828 275.035 386.404C283.206 399 293.079 409.213 302.271 418.746C318.952 436.108 334.613 452.45 339.719 479.685C348.231 527.007 322.697 572.286 293.76 614.16C279.801 634.587 250.864 658.077 219.883 682.93C167.795 725.485 108.899 773.488 108.558 818.086C108.558 843.619 115.027 863.025 127.964 875.961C142.262 890.26 163.71 897.069 193.669 897.069C237.246 897.069 291.036 882.43 338.358 869.493C375.807 859.28 407.808 850.428 428.575 850.428C433.342 850.428 437.086 850.769 440.15 851.79C459.896 857.577 475.897 870.174 490.876 882.43C510.963 898.431 530.027 913.751 557.603 913.751C560.667 914.432 563.731 914.091 566.455 913.751ZM441.172 849.747C437.767 848.726 433.682 848.385 428.916 848.385C408.149 848.385 375.807 857.237 338.358 867.45C291.036 880.387 237.586 895.026 194.35 895.026C164.731 895.026 143.964 888.217 130.347 874.6C117.75 862.003 111.622 842.938 111.622 818.426C111.963 774.85 170.519 727.188 221.926 685.313C252.566 660.12 281.844 636.63 296.143 615.863C325.421 573.648 351.295 528.028 342.783 479.685C337.677 451.769 321.676 435.087 304.654 417.384C295.462 407.851 285.589 397.638 277.418 385.382C269.929 373.807 265.843 363.594 262.098 354.402C254.949 336.358 249.502 322.4 222.266 309.804C214.096 306.059 207.968 303.335 202.861 301.293C183.115 292.781 183.115 292.781 175.285 272.695C173.583 268.27 171.54 263.163 169.157 257.035C159.284 232.523 151.454 227.757 141.581 227.757C139.539 227.757 137.156 228.097 135.113 228.097C132.389 228.438 130.006 228.438 126.942 228.438C120.474 228.438 111.963 227.416 99.7067 218.905C90.5147 212.437 86.7698 206.649 88.1316 201.543C94.2596 181.797 181.073 174.307 198.095 174.307C198.435 174.307 198.776 174.307 198.776 174.307L199.116 173.286L199.797 174.307C211.032 168.52 217.16 161.37 223.288 154.221C231.118 144.689 238.608 135.837 257.673 129.709C264.481 127.666 270.269 125.964 274.695 124.602C299.547 117.453 299.888 117.113 310.441 85.7918L311.803 81.7065C313.846 75.9189 312.144 71.8336 310.782 68.0887C309.08 63.3225 307.377 59.2372 313.846 52.0879C317.25 48.0025 329.506 43.5768 340.06 39.4915C347.209 36.7679 354.018 34.0443 357.763 32.0017C363.551 28.5972 367.295 23.831 371.04 19.4053C375.807 13.6177 380.573 8.17065 388.743 5.10665C394.19 3.06399 400.999 2.04266 409.17 2.04266C429.256 2.04266 453.087 8.51107 472.152 13.2773C476.578 14.2986 480.663 15.6604 484.408 16.3413C546.369 31.6612 605.266 59.5776 662.12 86.4727L667.907 89.1962C803.404 153.2 905.537 224.693 980.435 307.761C1030.82 363.594 1063.5 418.065 1079.84 473.897C1099.25 539.603 1085.29 619.948 1045.12 673.738C1024.35 701.654 987.243 734.677 929.368 734.677C914.388 734.677 898.728 732.294 883.068 727.868C745.188 688.037 749.614 551.859 764.593 427.597C769.019 390.489 762.21 360.189 744.507 340.103C729.527 323.081 706.718 313.889 680.844 313.889C632.841 313.889 571.562 346.912 552.497 408.192C530.708 478.323 577.349 538.241 622.288 596.117C670.29 657.737 719.655 721.74 692.079 800.383C676.078 845.662 616.841 905.24 566.795 910.687C564.072 911.027 561.348 911.027 558.625 911.027C532.07 911.027 513.346 896.048 493.6 880.047C477.599 868.812 461.598 855.875 441.172 849.747Z" fill="#C4C4C4"/>
</g>
</svg>
